Coordinates
version=1
nRows=36
nColumns=30
inDegrees=yes

Units are S.I. units (second, meters, Newtons, ...)
Angles are in degrees.

endheader
time	floatyaw	floatroll	floatpitch	floatx	floaty	floatz	pro_sup_l	deviation_l	flexion_l	cmc_flexion_l	cmc_abduction_l	mp_flexion_l	ip_flexion_l	2mcp_flexion_l	2mcp_abduction_l	2pm_flexion_l	2md_flexion_l	3mcp_flexion_l	3mcp_abduction_l	3pm_flexion_l	3md_flexion_l	4mcp_flexion_l	4mcp_abduction_l	4pm_flexion_l	4md_flexion_l	5mcp_flexion_l	5mcp_abduction_l	5pm_flexion_l	5md_flexion_l
-0.495000	-160.147433	-5.066637	-73.570646	0.083436	-0.181577	-0.014160	101.287246	3.133666	1.014603	15.988141	8.142696	-25.160227	-41.194717	28.346093	5.928324	41.668661	27.955351	22.398149	3.596471	42.206099	28.201449	10.926732	-4.001517	51.019573	34.585291	-0.915502	-6.473975	61.096389	40.543353
-0.485000	-160.147433	-5.066637	-73.570646	0.083423	-0.181572	-0.014178	101.294934	3.124230	1.013216	15.971598	8.149735	-25.171711	-41.207805	28.379372	5.935264	41.671714	27.954880	22.396901	3.598586	42.220190	28.196797	10.932913	-3.999289	51.022188	34.594692	-0.907394	-6.484848	61.110793	40.570999
-0.475000	-160.147433	-5.066637	-73.570646	0.083413	-0.181553	-0.014196	101.308031	3.115944	1.025250	15.953531	8.132451	-25.173439	-41.212047	28.398981	5.938713	41.677036	27.955032	22.382620	3.603622	42.214075	28.194326	10.925908	-3.998510	51.028487	34.603702	-0.917898	-6.491879	61.127942	40.596074
-0.465000	-160.147433	-5.066637	-73.570646	0.083406	-0.181514	-0.014216	101.328600	3.110911	1.056929	15.930622	8.090957	-25.157042	-41.197082	28.398925	5.937429	41.681942	27.954392	22.352815	3.610758	42.183090	28.192327	10.898564	-3.999519	51.037160	34.611384	-0.952651	-6.493267	61.144892	40.613341
-0.455000	-160.147433	-5.066637	-73.570646	0.083402	-0.181450	-0.014248	101.357592	3.109577	1.109510	15.901736	8.037824	-25.122641	-41.161118	28.377540	5.931834	41.684238	27.952323	22.310937	3.618531	42.130164	28.187073	10.850053	-4.002046	51.046206	34.617045	-1.011674	-6.489094	61.159298	40.621042
-0.445000	-160.147433	-5.066637	-73.570646	0.083397	-0.181361	-0.014304	101.396203	3.110489	1.180665	15.867667	7.993541	-25.079882	-41.112551	28.336209	5.923879	41.682942	27.949792	22.265405	3.625056	42.063732	28.175648	10.786568	-4.005112	51.052633	34.619062	-1.089147	-6.481116	61.169990	40.620805
-0.435000	-160.147433	-5.066637	-73.570646	0.083385	-0.181245	-0.014400	101.448414	3.111335	1.267541	15.829939	7.976616	-25.043873	-41.066397	28.278349	5.916167	41.677873	27.948783	22.226394	3.628408	41.994433	28.157847	10.719773	-4.007337	51.052455	34.614652	-1.174305	-6.471532	61.176420	40.615901
-0.425000	-160.147433	-5.066637	-73.570646	0.083358	-0.181095	-0.014551	101.522883	3.110620	1.369013	15.790230	7.993813	-25.028543	-41.038159	28.210256	5.910756	41.668811	27.950587	22.202034	3.627106	41.932879	28.136422	10.664168	-4.007554	51.041444	34.600971	-1.252640	-6.461793	61.177694	40.608953
-0.415000	-160.147433	-5.066637	-73.570646	0.083303	-0.180899	-0.014768	101.632027	3.108786	1.485595	15.751156	8.036567	-25.041185	-41.038555	28.143198	5.908137	41.654996	27.953915	22.195577	3.620531	41.888939	28.115753	10.634054	-4.005441	51.016445	34.576636	-1.307946	-6.452508	61.172316	40.600406
-0.405000	-160.147433	-5.066637	-73.570646	0.083208	-0.180643	-0.015060	101.788205	3.108220	1.617323	15.717370	8.086112	-25.080685	-41.071045	28.094093	5.906855	41.635642	27.954065	22.204441	3.609152	41.871271	28.099665	10.640057	-4.001837	50.976929	34.542606	-1.326081	-6.444563	61.159242	40.588509
-0.395000	-160.147433	-5.066637	-73.570646	0.083056	-0.180310	-0.015437	101.999789	3.112772	1.761579	15.694837	8.124396	-25.139643	-41.132251	28.082048	5.904192	41.611718	27.944248	22.221141	3.594584	41.885921	28.089692	10.685650	-3.998552	50.926368	34.501998	-1.299792	-6.440468	61.139671	40.570535
-0.385000	-160.147433	-5.066637	-73.570646	0.082836	-0.179887	-0.015914	102.270180	3.127832	1.913254	15.687293	8.143792	-25.208823	-41.214408	28.120502	5.897715	41.588286	27.919122	22.235656	3.579441	41.934045	28.084846	10.765223	-3.997574	50.872257	34.458861	-1.232120	-6.444521	61.117830	40.544092
-0.375000	-160.147433	-5.066637	-73.570646	0.082535	-0.179354	-0.016513	102.600076	3.161496	2.068068	15.691719	8.148871	-25.281719	-41.308772	28.208430	5.886728	41.575666	27.878879	22.238937	3.566754	42.009738	28.082679	10.865670	-3.999930	50.823400	34.416212	-1.135530	-6.460756	61.098947	40.507297
-0.365000	-160.147433	-5.066637	-73.570646	0.082141	-0.178681	-0.017263	102.990041	3.226490	2.227089	15.696463	8.148877	-25.357040	-41.408769	28.326253	5.872585	41.587896	27.831372	22.227352	3.558874	42.099271	28.080338	10.972351	-4.004860	50.784565	34.374016	-1.025880	-6.489115	61.084661	40.457679
-0.355000	-160.147433	-5.066637	-73.570646	0.081630	-0.177827	-0.018198	103.439274	3.341799	2.398611	15.683968	8.146365	-25.437893	-41.511504	28.440386	5.857738	41.638644	27.790633	22.206880	3.556409	42.183003	28.074890	11.077955	-4.010050	50.750998	34.328147	-0.913560	-6.522257	61.069180	40.391189
-0.345000	-160.147433	-5.066637	-73.570646	0.080966	-0.176735	-0.019356	103.938360	3.532324	2.594295	15.636108	8.130255	-25.528201	-41.616472	28.515843	5.844577	41.736516	27.772268	22.194974	3.558052	42.240457	28.063531	11.190655	-4.013064	50.706391	34.271237	-0.796156	-6.546409	61.040164	40.303050
-0.335000	-160.147433	-5.066637	-73.570646	0.080090	-0.175348	-0.020771	104.457877	3.825333	2.819490	15.538065	8.078141	-25.627938	-41.720797	28.532007	5.835084	41.881990	27.787892	22.219154	3.561660	42.257141	28.044486	11.337473	-4.012932	50.626719	34.195717	-0.655594	-6.547912	60.985150	40.190693
-0.325000	-160.147433	-5.066637	-73.570646	0.078930	-0.173623	-0.022474	104.939132	4.244313	3.061375	15.378768	7.966535	-25.728468	-41.811595	28.495098	5.831412	42.066967	27.840826	22.313630	3.565875	42.229956	28.018126	11.560918	-4.010322	50.489251	34.098161	-0.459465	-6.523094	60.899867	40.056896
-0.315000	-160.147433	-5.066637	-73.570646	0.077404	-0.171540	-0.024481	105.294783	4.803021	3.281021	15.149937	7.783643	-25.809414	-41.858829	28.441526	5.836742	42.276585	27.924492	22.515515	3.571070	42.168181	27.986986	11.910763	-4.005728	50.282206	33.982566	-0.164294	-6.485405	60.792669	39.910393
-0.305000	-160.147433	-5.066637	-73.570646	0.075435	-0.169105	-0.026791	105.423665	5.503199	3.415392	14.847184	7.538753	-25.840263	-41.815417	28.428846	5.855758	42.492323	28.024011	22.860056	3.579012	42.088911	27.954068	12.435162	-3.997276	50.008336	33.859504	0.279632	-6.463611	60.681202	39.762640
-0.295000	-160.147433	-5.066637	-73.570646	0.072961	-0.166344	-0.029389	105.236603	6.337279	3.391676	14.473710	7.264091	-25.790607	-41.631245	28.515758	5.894011	42.695036	28.120285	23.372661	3.591530	42.008175	27.920115	13.173377	-3.980624	49.678048	33.740161	0.918967	-6.489337	60.581541	39.622170
-0.285000	-160.147433	-5.066637	-73.570646	0.069947	-0.163283	-0.032253	104.682504	7.293522	3.150306	14.043744	7.007067	-25.648629	-41.281027	28.738957	5.955107	42.866138	28.194570	24.057006	3.608780	41.931485	27.881657	14.147986	-3.951626	49.294427	33.628491	1.781065	-6.579518	60.493920	39.490015
-0.275000	-160.147433	-5.066637	-73.570646	0.066378	-0.159946	-0.035356	103.762153	8.358769	2.667292	13.582524	6.813136	-25.439729	-40.795208	29.098031	6.035720	42.986611	28.231646	24.882763	3.627848	41.849590	27.832011	15.353616	-3.909521	48.839869	33.517934	2.854902	-6.724563	60.391491	39.359487
-0.265000	-160.147433	-5.066637	-73.570646	0.062257	-0.156357	-0.038674	102.522889	9.516415	1.965100	13.121672	6.703808	-25.232551	-40.275383	29.555143	6.121389	43.037128	28.221892	25.780427	3.642590	41.744089	27.766261	16.745223	-3.857839	48.275969	33.397450	4.080713	-6.891386	60.219843	39.221674
-0.255000	-160.147433	-5.066637	-73.570646	0.057589	-0.152556	-0.042185	101.037553	10.742162	1.106352	12.691282	6.661044	-25.122226	-39.876884	30.045854	6.187932	43.004872	28.164744	26.650323	3.645487	41.601744	27.688246	18.236104	-3.802771	47.561642	33.264890	5.359296	-7.041335	59.913356	39.075140
-0.245000	-160.147433	-5.066637	-73.570646	0.052365	-0.148607	-0.045875	99.379526	12.001931	0.174123	12.312744	6.633133	-25.190199	-39.753327	30.490188	6.210673	42.898587	28.074931	27.385829	3.631124	41.429269	27.614931	19.714229	-3.751074	46.682253	33.138474	6.580692	-7.152459	59.426990	38.935000
-0.235000	-160.147433	-5.066637	-73.570646	0.046554	-0.144603	-0.049740	97.607253	13.253074	-0.749413	11.998212	6.569337	-25.454077	-39.979926	30.795728	6.177215	42.764074	27.988456	27.901046	3.599423	41.258281	27.573890	21.072664	-3.709030	45.673027	33.055576	7.658412	-7.231541	58.769360	38.833745
-0.225000	-160.147433	-5.066637	-73.570646	0.040120	-0.140663	-0.053785	95.764516	14.446021	-1.593786	11.759938	6.470622	-25.834236	-40.494593	30.854753	6.094797	42.685914	27.961689	28.148883	3.556281	41.134974	27.593277	22.237119	-3.681867	44.620086	33.054826	8.551128	-7.307072	58.013360	38.807166
-0.215000	-160.147433	-5.066637	-73.570646	0.033061	-0.136930	-0.058001	93.890422	15.523594	-2.296115	11.624387	6.425453	-26.165358	-41.100565	30.545566	5.985007	42.765772	28.058939	28.121005	3.510633	41.097678	27.688155	23.174590	-3.672542	43.632697	33.148766	9.262293	-7.406251	57.266628	38.866587
-0.205000	-160.147433	-5.066637	-73.570646	0.025439	-0.133567	-0.062357	92.025599	16.419068	-2.788583	11.639165	6.600611	-26.261520	-41.547680	29.746654	5.866846	43.082139	28.331041	27.831870	3.469351	41.153321	27.850039	23.881504	-3.680303	42.796458	33.302486	9.821906	-7.530020	56.609542	38.971244
-0.195000	-160.147433	-5.066637	-73.570646	0.017381	-0.130742	-0.066792	90.207336	17.057771	-2.990649	11.864336	7.180663	-26.008476	-41.659745	28.363426	5.738972	43.650835	28.794535	27.298620	3.433151	41.267248	28.046367	24.364433	-3.700577	42.132328	33.433671	10.264404	-7.643464	56.038527	39.022849
-0.185000	-160.147433	-5.066637	-73.570646	0.009046	-0.128602	-0.071250	88.461394	17.366725	-2.817391	12.352019	8.281227	-25.430312	-41.435455	26.360716	5.575516	44.409930	29.422526	26.532425	3.396397	41.377660	28.233161	24.629646	-3.726859	41.591149	33.441246	10.617681	-7.691335	55.461234	38.898283
-0.175000	-160.147433	-5.066637	-73.570646	0.000586	-0.127253	-0.075699	86.804893	17.292572	-2.206501	13.126087	9.879617	-24.685759	-41.056205	23.795037	5.342702	45.243331	30.153133	25.552304	3.351741	41.435541	28.378406	24.689236	-3.753576	41.099765	33.257071	10.910350	-7.632939	54.763825	38.516383
-0.165000	-160.147433	-5.066637	-73.570646	-0.007868	-0.126736	-0.080143	85.263378	16.822697	-1.155197	14.169807	11.799391	-23.993923	-40.791458	20.841656	5.029385	46.037385	30.912727	24.418975	3.297943	41.455585	28.487485	24.579559	-3.778644	40.644537	32.902601	11.191043	-7.477333	53.922706	37.911797
-0.155000	-160.147433	-5.066637	-73.570646	-0.016182	-0.127025	-0.084602	83.887135	16.000896	0.250464	15.422141	13.756144	-23.537816	-40.861625	17.804681	4.674242	46.744398	31.643928	23.270417	3.247063	41.550284	28.617766	24.380186	-3.805238	40.346885	32.524381	11.543476	-7.298003	53.095946	37.276889
-0.145000	-160.147433	-5.066637	-73.570646	-0.024193	-0.128020	-0.089078	82.747666	14.928874	1.832552	16.783261	15.439403	-23.406237	-41.344784	15.090841	4.373159	47.418805	32.326910	22.333391	3.226658	41.919387	28.871348	24.221448	-3.842653	40.476558	32.383305	12.082076	-7.217135	52.630877	36.939833
